<mxfile host="app.diagrams.net" modified="2024-05-28T16:20:58.757Z" agent="Mozilla/5.0 (Windows NT 10.0; Win64; x64) AppleWebKit/537.36 (KHTML, like Gecko) Chrome/122.0.0.0 YaBrowser/24.4.0.0 Safari/537.36" etag="wFUSOavZa8kUNB2ITdws" version="24.4.9" type="device">
  <diagram name="Страница — 1" id="y-d3Gkllbge5vIAIxVeH">
    <mxGraphModel dx="2620" dy="-133" grid="1" gridSize="10" guides="1" tooltips="1" connect="1" arrows="1" fold="1" page="1" pageScale="1" pageWidth="827" pageHeight="1169" math="0" shadow="0">
      <root>
        <mxCell id="0" />
        <mxCell id="1" parent="0" />
        <mxCell id="I9NbDvM1c6gbNyxn2x0W-2" style="edgeStyle=orthogonalEdgeStyle;rounded=0;orthogonalLoop=1;jettySize=auto;html=1;entryX=0.5;entryY=0;entryDx=0;entryDy=0;" edge="1" parent="1" source="I9NbDvM1c6gbNyxn2x0W-3" target="I9NbDvM1c6gbNyxn2x0W-5">
          <mxGeometry relative="1" as="geometry" />
        </mxCell>
        <mxCell id="I9NbDvM1c6gbNyxn2x0W-3" value="Начало" style="rounded=1;whiteSpace=wrap;html=1;" vertex="1" parent="1">
          <mxGeometry x="130" y="1240" width="142" height="20" as="geometry" />
        </mxCell>
        <mxCell id="I9NbDvM1c6gbNyxn2x0W-4" style="edgeStyle=orthogonalEdgeStyle;rounded=0;orthogonalLoop=1;jettySize=auto;html=1;entryX=0.5;entryY=0;entryDx=0;entryDy=0;" edge="1" parent="1" source="I9NbDvM1c6gbNyxn2x0W-5" target="I9NbDvM1c6gbNyxn2x0W-7">
          <mxGeometry relative="1" as="geometry" />
        </mxCell>
        <mxCell id="I9NbDvM1c6gbNyxn2x0W-5" value="Главная страница" style="rounded=0;whiteSpace=wrap;html=1;" vertex="1" parent="1">
          <mxGeometry x="141" y="1300" width="120" height="60" as="geometry" />
        </mxCell>
        <mxCell id="I9NbDvM1c6gbNyxn2x0W-44" style="edgeStyle=orthogonalEdgeStyle;rounded=0;orthogonalLoop=1;jettySize=auto;html=1;entryX=0.5;entryY=0;entryDx=0;entryDy=0;" edge="1" parent="1" source="I9NbDvM1c6gbNyxn2x0W-7" target="I9NbDvM1c6gbNyxn2x0W-43">
          <mxGeometry relative="1" as="geometry" />
        </mxCell>
        <mxCell id="I9NbDvM1c6gbNyxn2x0W-7" value="Кнопка сделать заказ" style="rounded=0;whiteSpace=wrap;html=1;" vertex="1" parent="1">
          <mxGeometry x="141" y="1400" width="120" height="60" as="geometry" />
        </mxCell>
        <mxCell id="I9NbDvM1c6gbNyxn2x0W-46" style="edgeStyle=orthogonalEdgeStyle;rounded=0;orthogonalLoop=1;jettySize=auto;html=1;entryX=0.5;entryY=0;entryDx=0;entryDy=0;" edge="1" parent="1" source="I9NbDvM1c6gbNyxn2x0W-43" target="I9NbDvM1c6gbNyxn2x0W-45">
          <mxGeometry relative="1" as="geometry" />
        </mxCell>
        <mxCell id="I9NbDvM1c6gbNyxn2x0W-43" value="Кнопка &quot;Заказать доставку&quot;" style="rounded=0;whiteSpace=wrap;html=1;" vertex="1" parent="1">
          <mxGeometry x="141" y="1500" width="120" height="60" as="geometry" />
        </mxCell>
        <mxCell id="I9NbDvM1c6gbNyxn2x0W-48" style="edgeStyle=orthogonalEdgeStyle;rounded=0;orthogonalLoop=1;jettySize=auto;html=1;entryX=0.5;entryY=0;entryDx=0;entryDy=0;" edge="1" parent="1" source="I9NbDvM1c6gbNyxn2x0W-45" target="I9NbDvM1c6gbNyxn2x0W-47">
          <mxGeometry relative="1" as="geometry" />
        </mxCell>
        <mxCell id="I9NbDvM1c6gbNyxn2x0W-45" value="Модальное окно с каталогом товаров" style="rounded=0;whiteSpace=wrap;html=1;" vertex="1" parent="1">
          <mxGeometry x="141" y="1600" width="120" height="60" as="geometry" />
        </mxCell>
        <mxCell id="I9NbDvM1c6gbNyxn2x0W-50" style="edgeStyle=orthogonalEdgeStyle;rounded=0;orthogonalLoop=1;jettySize=auto;html=1;entryX=0.5;entryY=0;entryDx=0;entryDy=0;" edge="1" parent="1" source="I9NbDvM1c6gbNyxn2x0W-47" target="I9NbDvM1c6gbNyxn2x0W-49">
          <mxGeometry relative="1" as="geometry" />
        </mxCell>
        <mxCell id="I9NbDvM1c6gbNyxn2x0W-47" value="Кнопка &quot;В корзину&quot;" style="rounded=0;whiteSpace=wrap;html=1;" vertex="1" parent="1">
          <mxGeometry x="141" y="1694" width="120" height="60" as="geometry" />
        </mxCell>
        <mxCell id="I9NbDvM1c6gbNyxn2x0W-53" style="edgeStyle=orthogonalEdgeStyle;rounded=0;orthogonalLoop=1;jettySize=auto;html=1;entryX=0.5;entryY=0;entryDx=0;entryDy=0;" edge="1" parent="1" source="I9NbDvM1c6gbNyxn2x0W-49" target="I9NbDvM1c6gbNyxn2x0W-51">
          <mxGeometry relative="1" as="geometry" />
        </mxCell>
        <mxCell id="I9NbDvM1c6gbNyxn2x0W-54" value="Да" style="edgeLabel;html=1;align=center;verticalAlign=middle;resizable=0;points=[];" vertex="1" connectable="0" parent="I9NbDvM1c6gbNyxn2x0W-53">
          <mxGeometry x="-0.0605" y="-2" relative="1" as="geometry">
            <mxPoint as="offset" />
          </mxGeometry>
        </mxCell>
        <mxCell id="I9NbDvM1c6gbNyxn2x0W-49" value="Пользователь зарегистрирован?" style="rhombus;whiteSpace=wrap;html=1;" vertex="1" parent="1">
          <mxGeometry x="120" y="1790" width="160" height="80" as="geometry" />
        </mxCell>
        <mxCell id="I9NbDvM1c6gbNyxn2x0W-62" style="edgeStyle=orthogonalEdgeStyle;rounded=0;orthogonalLoop=1;jettySize=auto;html=1;" edge="1" parent="1" source="I9NbDvM1c6gbNyxn2x0W-51">
          <mxGeometry relative="1" as="geometry">
            <mxPoint x="-40" y="1960" as="targetPoint" />
          </mxGeometry>
        </mxCell>
        <mxCell id="I9NbDvM1c6gbNyxn2x0W-51" value="Оформление заказа" style="rounded=0;whiteSpace=wrap;html=1;" vertex="1" parent="1">
          <mxGeometry x="-100" y="1860" width="120" height="60" as="geometry" />
        </mxCell>
        <mxCell id="I9NbDvM1c6gbNyxn2x0W-60" style="edgeStyle=orthogonalEdgeStyle;rounded=0;orthogonalLoop=1;jettySize=auto;html=1;entryX=1;entryY=0.5;entryDx=0;entryDy=0;" edge="1" parent="1" source="I9NbDvM1c6gbNyxn2x0W-57" target="I9NbDvM1c6gbNyxn2x0W-51">
          <mxGeometry relative="1" as="geometry" />
        </mxCell>
        <mxCell id="I9NbDvM1c6gbNyxn2x0W-57" value="Ввод адреса доставки" style="shape=parallelogram;perimeter=parallelogramPerimeter;whiteSpace=wrap;html=1;fixedSize=1;" vertex="1" parent="1">
          <mxGeometry x="354" y="1860" width="120" height="60" as="geometry" />
        </mxCell>
        <mxCell id="I9NbDvM1c6gbNyxn2x0W-59" style="edgeStyle=orthogonalEdgeStyle;rounded=0;orthogonalLoop=1;jettySize=auto;html=1;entryX=0.584;entryY=-0.004;entryDx=0;entryDy=0;entryPerimeter=0;" edge="1" parent="1" source="I9NbDvM1c6gbNyxn2x0W-49" target="I9NbDvM1c6gbNyxn2x0W-57">
          <mxGeometry relative="1" as="geometry" />
        </mxCell>
        <mxCell id="I9NbDvM1c6gbNyxn2x0W-61" value="Нет" style="edgeLabel;html=1;align=center;verticalAlign=middle;resizable=0;points=[];" vertex="1" connectable="0" parent="I9NbDvM1c6gbNyxn2x0W-59">
          <mxGeometry x="-0.2294" y="1" relative="1" as="geometry">
            <mxPoint as="offset" />
          </mxGeometry>
        </mxCell>
        <mxCell id="I9NbDvM1c6gbNyxn2x0W-63" value="Конец" style="rounded=1;whiteSpace=wrap;html=1;" vertex="1" parent="1">
          <mxGeometry x="-100" y="1960" width="120" height="20" as="geometry" />
        </mxCell>
      </root>
    </mxGraphModel>
  </diagram>
</mxfile>
